# xmcd CD database file
#
# Track frame offsets:
#	150
#	14942
#	30593
#	45783
#
# Disc length: 845 seconds
#
# Revision: 0
# Processed by: cddbd v1.5.1PL0 Copyright (c) Steve Scherf et al.
# Submitted via: CDex 1.51
#
DISCID=27034b04
DTITLE=Greta Gertler - Greta Gertler
DYEAR=2000
DGENRE=Jazz
TTITLE0=manhood
TTITLE1=damian
TTITLE2=all the answers
TTITLE3=everyone wants to adore you
EXTD=YEAR: 2000
EXTT0=
EXTT1=
EXTT2=
EXTT3=
PLAYORDER=
